<svg xmlns="http://www.w3.org/2000/svg" width="184" height="92.038" viewBox="0 0 184 92.038"><defs><style>.a{fill:#fff;}</style></defs><g transform="translate(-315.001 -426.132)"><g transform="translate(315.001 426.132)"><path class="a" d="M38.371,436.6a5.876,5.876,0,0,0-1.965-4.277,7.988,7.988,0,0,0-5.3-1.513,13.538,13.538,0,0,0-9.769,3.922q-4.051,3.922-5.244,10.922-1.219,7.106.948,11.08t7.994,3.974a14.291,14.291,0,0,0,8.157-2.079,8.4,8.4,0,0,0,3.713-5.606H26.881L28.616,442.6H53.221l-1.247,7.475a27.387,27.387,0,0,1-5.352,12.594,27.035,27.035,0,0,1-10.2,8,31.919,31.919,0,0,1-13.387,2.777A26,26,0,0,1,9.4,470.107a18.537,18.537,0,0,1-7.926-9.528q-2.371-6.185-.935-14.712a35.126,35.126,0,0,1,4.133-11.844A31.9,31.9,0,0,1,12,425.3a31.134,31.134,0,0,1,9.566-5.4,32.6,32.6,0,0,1,10.839-1.829,25.872,25.872,0,0,1,11.449,2.382,17.7,17.7,0,0,1,7.493,6.553A15.741,15.741,0,0,1,53.6,436.6H38.371Z" transform="translate(0 -418.074)"/><path class="a" d="M2001.255,431.711h18.752l7.7,30.53h.65l18.1-30.53h18.752l-9.213,53.9h-14.742l5.311-31.162h-.434l-17.56,30.741h-8.888l-7.046-30.951h-.433l-5.42,31.372h-14.742Z" transform="translate(-1881.208 -430.974)"/><path class="a" d="M406.311,1608.552H397.6l14.748-28.873h11.032l4.877,28.873H419.55l-.769-5.526h-9.8Zm5.5-11.391h6.155l-1.321-9.53h-.232Z" transform="translate(-375.48 -1516.91)"/><path class="a" d="M1011.532,1581.79a2.546,2.546,0,0,0-.7-2.192,3.953,3.953,0,0,0-2.787-.8,5.261,5.261,0,0,0-2.823.613A2.348,2.348,0,0,0,1004.1,1581q-.494,1.932,3.542,2.763l2.323.508q4.747,1.015,6.546,3.285a6.729,6.729,0,0,1,1.234,5.569,9.341,9.341,0,0,1-4.333,6.563,19.788,19.788,0,0,1-15.808,1.17,7.371,7.371,0,0,1-3.89-3.44,9.38,9.38,0,0,1-.588-5.928h7.664a3.241,3.241,0,0,0,.893,3.024,5.04,5.04,0,0,0,3.462,1.036,5.848,5.848,0,0,0,3.07-.683,2.516,2.516,0,0,0,1.285-1.741,1.6,1.6,0,0,0-.718-1.643,9,9,0,0,0-3.288-1.177l-2.845-.62a11.363,11.363,0,0,1-5.719-2.792,5.776,5.776,0,0,1-1.365-5.329,9.328,9.328,0,0,1,2.344-4.829,12.619,12.619,0,0,1,4.79-3.214,17.424,17.424,0,0,1,6.452-1.149,13.856,13.856,0,0,1,6.031,1.17,7.289,7.289,0,0,1,3.5,3.285,7.817,7.817,0,0,1,.573,4.962Z" transform="translate(-937.677 -1509.997)"/><path class="a" d="M1500.962,1581.79a2.547,2.547,0,0,0-.7-2.192,3.952,3.952,0,0,0-2.787-.8,5.262,5.262,0,0,0-2.823.613,2.35,2.35,0,0,0-1.125,1.586q-.493,1.932,3.542,2.763l2.322.508q4.747,1.015,6.547,3.285a6.728,6.728,0,0,1,1.234,5.569,9.34,9.34,0,0,1-4.333,6.563,19.788,19.788,0,0,1-15.807,1.17,7.37,7.37,0,0,1-3.89-3.44,9.381,9.381,0,0,1-.588-5.928h7.664a3.241,3.241,0,0,0,.893,3.024,5.041,5.041,0,0,0,3.462,1.036,5.849,5.849,0,0,0,3.07-.683,2.516,2.516,0,0,0,1.284-1.741,1.6,1.6,0,0,0-.719-1.643,8.992,8.992,0,0,0-3.288-1.177l-2.845-.62a11.363,11.363,0,0,1-5.719-2.792,5.776,5.776,0,0,1-1.364-5.329,9.326,9.326,0,0,1,2.344-4.829,12.614,12.614,0,0,1,4.79-3.214,17.425,17.425,0,0,1,6.452-1.149,13.856,13.856,0,0,1,6.031,1.17,7.29,7.29,0,0,1,3.5,3.285,7.817,7.817,0,0,1,.573,4.962Z" transform="translate(-1399.875 -1509.997)"/><path class="a" d="M1970.755,1579.68l-4.935,28.873h-8.071l4.935-28.873Z" transform="translate(-1848.824 -1516.91)"/><path class="a" d="M2238.906,1587.716a17.925,17.925,0,0,1-3.223,7.895,15.611,15.611,0,0,1-5.85,4.807,17.048,17.048,0,0,1-7.36,1.621,14.359,14.359,0,0,1-7.257-1.762,10.311,10.311,0,0,1-4.486-5.16,14.955,14.955,0,0,1-.566-8.3,17.877,17.877,0,0,1,3.193-7.923,15.7,15.7,0,0,1,5.879-4.864,17.057,17.057,0,0,1,7.418-1.649,14.167,14.167,0,0,1,7.221,1.776,10.339,10.339,0,0,1,4.47,5.2A15.21,15.21,0,0,1,2238.906,1587.716Zm-8.129-.9q.61-3.721-.486-5.667a4.115,4.115,0,0,0-3.927-1.946,6.96,6.96,0,0,0-5.32,2.249,11.708,11.708,0,0,0-2.751,6.267q-.7,3.764.494,5.632a4.35,4.35,0,0,0,3.977,1.868,6.9,6.9,0,0,0,5.247-2.192A11.75,11.75,0,0,0,2230.776,1586.814Z" transform="translate(-2086.897 -1510.002)"/><path class="a" d="M2786.739,1579.68l-4.935,28.873h-6.736l-8.129-15.169h-.174l-2.613,15.169h-8.071l4.935-28.873h6.851l8.013,15.113h.232l2.554-15.113h8.071Z" transform="translate(-2602.739 -1516.91)"/><path class="a" d="M9.312,1600.778l-1.242,7.778H0l4.935-28.873h8.116Zm6.054-21.095h2.4a11.261,11.261,0,0,1,5.574,1.269,7.317,7.317,0,0,1,3.251,3.567,9.417,9.417,0,0,1,.465,5.371,11.593,11.593,0,0,1-2.315,5.392,11.764,11.764,0,0,1-4.558,3.482,15.186,15.186,0,0,1-6.191,1.22H11.767l1.08-6.09h.566a5.6,5.6,0,0,0,3.549-1.072,4.49,4.49,0,0,0,1.677-2.932,3.216,3.216,0,0,0-.7-2.9,4.173,4.173,0,0,0-3.135-1.043h-.55Z" transform="translate(0 -1516.912)"/><path class="a" d="M1097.526,469.311l-2.816,16.306h-14.958l2.927-16.949-14.091-36.952h16.8l7.046,21.9h.046Zm3.051-4.718-4.814-15.181,11.738-17.7h16.8l-23.725,32.877Z" transform="translate(-1009.133 -430.978)"/></g></g></svg>